<svg width="1066" height="379" viewBox="0 0 1066 379" fill="none" xmlns="http://www.w3.org/2000/svg">
<rect width="1066" height="379" fill="black"/>
<g clip-path="url(#clip0_3_35)">
<path d="M113.974 81.9755C115.33 82.5794 116.951 83.0117 117.117 83.7644C118.152 88.4626 121.663 88.2648 125.085 87.9737C139.871 86.716 148.416 98.3209 151.774 109.792C153.217 114.72 154.974 116.128 159.945 116.11C210.772 115.929 261.601 115.837 312.427 116.103C326.784 116.178 333.4 123.965 334.749 136.793C335.312 142.145 333.673 147.739 332.949 153.211C332.01 160.297 330.953 167.367 330.007 174.452C328.951 182.349 328.005 190.262 326.892 198.151C326.749 199.166 325.892 200.079 325.385 201.004C315.833 198.035 316.459 198.381 317.169 190.192C318.165 178.726 320.565 167.389 321.883 155.942C322.711 148.748 323.036 141.443 322.863 134.205C322.753 129.623 318.53 128.227 314.77 127.044C314.011 126.806 313.114 127.001 312.281 127.001C261.12 127 209.959 127 158.798 127.005C157.982 127.005 157.166 127.076 155.952 127.131C157.495 135.23 159.066 143.079 160.474 150.958C162.381 161.63 164.102 172.335 166.022 183.004C167.222 189.671 168.65 196.296 169.956 202.944C170.336 204.879 170.677 206.822 170.988 208.769C172.164 216.121 174.165 217.411 181.929 215.998C184.488 215.532 187.085 215.183 189.68 215.023C206.598 213.978 223.528 213.109 240.435 211.911C243.902 211.665 245.424 213.023 246.485 215.917C248.003 220.062 247.076 221.693 242.676 221.988C232.182 222.691 221.677 223.224 211.191 224.03C199.277 224.946 187.38 226.084 175.481 227.125C175.52 231.865 179.792 234.967 186.537 234.984C206.201 235.033 225.866 235.001 245.53 235C246.863 235 248.198 235.033 249.53 234.994C253.205 234.887 253.81 237.61 253.912 240.23C254.015 242.849 252.624 244.091 249.617 244.071C228.812 243.936 207.987 244.561 187.208 243.815C171.715 243.258 164.243 237.479 161.891 219.808C160.293 207.804 157.645 195.941 155.501 184.009C153.642 173.662 152.266 163.206 149.9 152.978C146.285 137.348 146.355 120.85 139.008 106.097C135.153 98.3554 129.932 95.893 121.62 98.0505C120.438 98.3572 119.243 99.2138 118.404 100.135C114.944 103.933 110.932 106.786 105.613 105.77C99.5986 104.622 96.6731 100.085 95.1986 94.4989C94.227 90.818 97.1825 84.2208 100.841 81.6993C104.376 79.2623 110.192 79.3778 113.974 81.9755Z" fill="#FEFEFF"/>
<path d="M288.755 243.329C285.782 239.307 283.021 235.587 279.686 231.093C277.243 235.328 275.084 238.991 273.012 242.703C272.234 244.096 271.962 245.893 270.915 246.984C269.673 248.278 267.72 249.929 266.302 249.738C264.747 249.529 262.677 247.646 262.166 246.062C257.937 232.96 254.092 219.735 249.982 206.594C246.835 196.534 243.34 186.582 240.318 176.486C239.716 174.473 240.065 170.309 240.819 170.094C243.398 169.357 246.789 169.043 249.094 170.164C262.537 176.705 275.74 183.737 289.064 190.526C296.175 194.149 303.476 197.417 310.449 201.283C312.402 202.366 314.959 205.336 314.617 206.848C314.163 208.853 311.371 210.751 309.162 211.839C305.791 213.5 302.059 214.428 297.576 215.98C300.559 220.078 303.165 223.777 305.896 227.381C309.526 232.173 313.31 236.849 316.911 241.662C318.504 243.792 318.371 245.788 315.989 247.543C312.332 250.237 309.038 253.49 305.176 255.821C302.067 257.697 298.646 258.509 296.215 253.884C294.285 250.211 291.419 247.03 288.755 243.329ZM263.542 187.96C260.173 186.292 256.804 184.623 252.067 182.278C253.3 186.379 254.163 189.207 254.999 192.043C258.346 203.39 261.661 214.747 265.057 226.079C265.422 227.296 266.135 228.454 266.89 229.492C267.357 230.133 268.208 230.495 268.887 230.982C269.263 230.39 269.688 229.824 270.005 229.202C271.322 226.625 272.44 223.93 273.938 221.465C276.641 217.014 280.541 216.878 283.246 220.668C288.8 228.448 294.61 236.046 300.213 243.792C301.451 245.504 302.587 247.508 304.392 244.878C305.162 243.756 305.244 241.179 304.467 240.134C298.662 232.331 292.47 224.817 286.598 217.062C283.84 213.418 285.564 209.908 289.979 208.944C292.721 208.346 295.343 207.196 298.72 206.057C286.626 199.72 275.471 193.876 263.542 187.96Z" fill="#FEFEFE"/>
<path d="M264 272.336C265.247 264.112 272.06 258.099 279.743 258C288.295 257.889 293.867 263.119 296.154 271.792C298.154 279.375 294.72 284.276 289.69 288.742C284.908 292.989 279.288 292.799 273.665 290.841C267.276 288.615 264 282.283 264 272.336ZM287.042 273.439C285.786 269.286 282.18 267.061 278.243 268.01C275.009 268.79 272.085 273.662 273.074 277.39C274.05 281.072 276.965 283.087 280.673 282.904C285.748 282.654 288.112 279.319 287.042 273.439Z" fill="#FEFEFE"/>
<path d="M203.001 267.028C205.373 272.861 205.975 278.163 202.801 283.678C199.522 289.376 191.482 293.357 184.937 291.96C177.842 290.446 172.678 283.49 171.853 276.409C170.886 268.098 178.418 258.626 187.254 258.247C193.516 257.978 199.895 259.825 203.001 267.028ZM180.557 276.047C181.04 277.06 181.502 278.084 182.012 279.084C184.013 283.011 188.71 284.719 192.286 281.585C194.482 279.661 195.923 275.241 195.449 272.306C194.805 268.312 189.436 266.584 185.867 268.865C183.491 270.384 181.957 273.22 180.557 276.047Z" fill="#FEFEFE"/>
<path d="M220.532 163.202C218.441 162.678 216.478 162.726 215.074 161.865C213.755 161.054 213.025 159.283 212.035 157.935C213.69 157.452 215.515 156.271 216.965 156.625C220.293 157.439 223.591 158.725 226.583 160.391C227.831 161.087 228.27 163.236 229.076 164.724C227.397 165.003 225.681 165.616 224.049 165.443C222.941 165.325 221.949 164.105 220.532 163.202Z" fill="#FEFEFE"/>
<path d="M277.785 161.578C273.742 164.446 269.975 167.149 265.951 169.392C264.884 169.987 262.915 169.438 261.581 168.882C260.91 168.603 260.164 166.585 260.438 166.3C261.388 165.309 262.729 164.648 263.998 164.016C266.845 162.599 269.816 161.415 272.588 159.871C274.977 158.54 276.84 158.14 277.785 161.578Z" fill="#FDFEFE"/>
<path d="M238.761 147.371C240.925 150.657 242.29 153.646 239.696 156.971C234.138 153.933 229.885 142.747 233.437 138.22C235.268 141.378 236.908 144.207 238.761 147.371Z" fill="#FDFEFE"/>
<path d="M213.056 186C212.174 185.098 211.104 183.982 211.337 183.334C212.216 180.885 222.73 175.469 225.275 176.061C226.249 176.288 227.804 177.174 227.802 177.754C227.798 178.828 227.104 180.477 226.236 180.871C222.064 182.767 217.737 184.324 213.056 186Z" fill="#FDFEFE"/>
<path d="M229.614 194.863C230.612 192.817 231.136 190.955 232.085 189.342C232.61 188.451 233.959 187.344 234.73 187.483C235.606 187.64 237.042 189.293 236.871 189.928C235.586 194.689 234.046 199.39 232.333 204.016C232.134 204.553 229.899 205.038 229.46 204.63C228.645 203.873 228.041 202.415 228.104 201.292C228.219 199.229 228.883 197.196 229.614 194.863Z" fill="#FEFEFF"/>
<path d="M259.99 142.455C258.902 147.182 258.022 151.559 256.563 155.735C256.191 156.799 253.986 157.223 252.623 157.941C252.114 156.518 250.862 154.852 251.233 153.716C252.499 149.845 254.39 146.181 255.94 142.397C257.111 139.537 258.34 138.917 259.99 142.455Z" fill="#FDFEFF"/>
<path d="M263.929 187.996C275.471 193.876 286.626 199.72 298.72 206.057C295.343 207.196 292.721 208.346 289.979 208.944C285.564 209.908 283.84 213.418 286.598 217.062C292.47 224.817 298.662 232.331 304.467 240.134C305.244 241.179 305.162 243.756 304.392 244.878C302.587 247.508 301.451 245.504 300.213 243.792C294.61 236.046 288.8 228.448 283.246 220.668C280.541 216.878 276.641 217.014 273.938 221.465C272.44 223.93 271.322 226.625 270.005 229.202C269.688 229.824 269.263 230.39 268.887 230.982C268.208 230.495 267.357 230.133 266.89 229.492C266.135 228.454 265.422 227.296 265.057 226.079C261.661 214.747 258.346 203.39 254.999 192.043C254.163 189.207 253.3 186.379 252.067 182.278C256.804 184.624 260.173 186.292 263.929 187.996Z" fill="black"/>
<path d="M287.306 273.745C288.112 279.319 285.748 282.654 280.673 282.904C276.965 283.087 274.05 281.072 273.074 277.39C272.085 273.662 275.009 268.79 278.243 268.01C282.18 267.061 285.786 269.286 287.306 273.745Z" fill="black"/>
<path d="M180.302 275.757C181.957 273.22 183.491 270.384 185.867 268.865C189.436 266.584 194.805 268.312 195.45 272.306C195.924 275.241 194.482 279.661 192.286 281.585C188.71 284.719 184.013 283.011 182.012 279.084C181.502 278.084 181.041 277.06 180.302 275.757Z" fill="black"/>
</g>
<path d="M403.209 224L389.572 171.636H406.311L413.368 205.182H413.811L421.379 171.636H437.709L445.482 204.943H445.925L452.777 171.636H469.516L455.845 224H438.016L429.834 193.489H429.254L421.072 224H403.209ZM509.99 201.398V171.636H526.626V224H510.74V214.25H510.195C509.036 217.455 507.058 220 504.263 221.886C501.49 223.75 498.138 224.682 494.206 224.682C490.638 224.682 487.501 223.864 484.797 222.227C482.092 220.591 479.99 218.307 478.49 215.375C476.99 212.42 476.229 208.966 476.206 205.011V171.636H492.876V201.739C492.899 204.58 493.649 206.818 495.126 208.455C496.604 210.091 498.615 210.909 501.161 210.909C502.82 210.909 504.308 210.545 505.626 209.818C506.967 209.068 508.024 207.989 508.797 206.58C509.592 205.148 509.99 203.42 509.99 201.398ZM561.714 224.989C556.237 224.989 551.51 223.909 547.533 221.75C543.578 219.568 540.533 216.466 538.396 212.443C536.283 208.398 535.226 203.591 535.226 198.023C535.226 192.614 536.294 187.886 538.43 183.841C540.567 179.773 543.578 176.614 547.464 174.364C551.351 172.091 555.93 170.955 561.203 170.955C564.93 170.955 568.339 171.534 571.43 172.693C574.521 173.852 577.192 175.568 579.442 177.841C581.692 180.114 583.442 182.92 584.692 186.261C585.942 189.58 586.567 193.386 586.567 197.682V201.841H541.055V192.159H571.055C571.033 190.386 570.612 188.807 569.794 187.42C568.976 186.034 567.851 184.955 566.419 184.182C565.01 183.386 563.385 182.989 561.544 182.989C559.68 182.989 558.01 183.409 556.533 184.25C555.055 185.068 553.885 186.193 553.021 187.625C552.158 189.034 551.703 190.636 551.658 192.432V202.284C551.658 204.42 552.078 206.295 552.919 207.909C553.76 209.5 554.953 210.739 556.499 211.625C558.044 212.511 559.885 212.955 562.021 212.955C563.499 212.955 564.839 212.75 566.044 212.341C567.249 211.932 568.283 211.33 569.146 210.534C570.01 209.739 570.658 208.761 571.089 207.602L586.396 208.045C585.76 211.477 584.362 214.466 582.203 217.011C580.067 219.534 577.26 221.5 573.783 222.909C570.305 224.295 566.283 224.989 561.714 224.989ZM603.868 243.636C601.868 243.636 599.982 243.477 598.209 243.159C596.436 242.864 594.913 242.466 593.641 241.966L597.322 229.864C598.959 230.409 600.436 230.727 601.754 230.818C603.095 230.909 604.243 230.693 605.197 230.17C606.175 229.67 606.925 228.773 607.447 227.477L608.095 225.909L589.482 171.636H606.936L616.584 209H617.129L626.913 171.636H644.47L624.732 229.011C623.777 231.875 622.425 234.398 620.675 236.58C618.947 238.784 616.709 240.511 613.959 241.761C611.232 243.011 607.868 243.636 603.868 243.636ZM650.862 224V171.636H666.714V181.25H667.294C668.385 178.068 670.226 175.557 672.817 173.716C675.408 171.875 678.499 170.955 682.089 170.955C685.726 170.955 688.839 171.886 691.43 173.75C694.021 175.614 695.669 178.114 696.374 181.25H696.919C697.896 178.136 699.805 175.648 702.646 173.784C705.487 171.898 708.839 170.955 712.703 170.955C717.658 170.955 721.68 172.545 724.771 175.727C727.862 178.886 729.408 183.227 729.408 188.75V224H712.737V192.568C712.737 189.955 712.067 187.966 710.726 186.602C709.385 185.216 707.646 184.523 705.51 184.523C703.214 184.523 701.408 185.273 700.089 186.773C698.794 188.25 698.146 190.239 698.146 192.739V224H682.124V192.398C682.124 189.966 681.464 188.045 680.146 186.636C678.828 185.227 677.089 184.523 674.93 184.523C673.476 184.523 672.192 184.875 671.078 185.58C669.964 186.261 669.089 187.239 668.453 188.511C667.839 189.784 667.533 191.284 667.533 193.011V224H650.862ZM754.499 224.886C751.158 224.886 748.192 224.33 745.601 223.216C743.033 222.08 740.999 220.375 739.499 218.102C738.021 215.807 737.283 212.932 737.283 209.477C737.283 206.568 737.794 204.114 738.817 202.114C739.839 200.114 741.249 198.489 743.044 197.239C744.839 195.989 746.908 195.045 749.249 194.409C751.589 193.75 754.089 193.307 756.749 193.08C759.726 192.807 762.124 192.523 763.942 192.227C765.76 191.909 767.078 191.466 767.896 190.898C768.737 190.307 769.158 189.477 769.158 188.409V188.239C769.158 186.489 768.555 185.136 767.351 184.182C766.146 183.227 764.521 182.75 762.476 182.75C760.271 182.75 758.499 183.227 757.158 184.182C755.817 185.136 754.964 186.455 754.601 188.136L739.226 187.591C739.68 184.409 740.851 181.568 742.737 179.068C744.646 176.545 747.26 174.568 750.578 173.136C753.919 171.682 757.93 170.955 762.612 170.955C765.953 170.955 769.033 171.352 771.851 172.148C774.669 172.92 777.124 174.057 779.214 175.557C781.305 177.034 782.919 178.852 784.055 181.011C785.214 183.17 785.794 185.636 785.794 188.409V224H770.112V216.705H769.703C768.771 218.477 767.578 219.977 766.124 221.205C764.692 222.432 762.999 223.352 761.044 223.966C759.112 224.58 756.93 224.886 754.499 224.886ZM759.646 213.977C761.442 213.977 763.055 213.614 764.487 212.886C765.942 212.159 767.101 211.159 767.964 209.886C768.828 208.591 769.26 207.091 769.26 205.386V200.409C768.783 200.659 768.203 200.886 767.521 201.091C766.862 201.295 766.135 201.489 765.339 201.67C764.544 201.852 763.726 202.011 762.885 202.148C762.044 202.284 761.237 202.409 760.464 202.523C758.896 202.773 757.555 203.159 756.442 203.682C755.351 204.205 754.51 204.886 753.919 205.727C753.351 206.545 753.067 207.523 753.067 208.659C753.067 210.386 753.68 211.705 754.908 212.614C756.158 213.523 757.737 213.977 759.646 213.977ZM795.987 224V171.636H812.18V181.182H812.726C813.68 177.727 815.237 175.159 817.396 173.477C819.555 171.773 822.067 170.92 824.93 170.92C825.703 170.92 826.499 170.977 827.317 171.091C828.135 171.182 828.896 171.33 829.601 171.534V186.023C828.805 185.75 827.76 185.534 826.464 185.375C825.192 185.216 824.055 185.136 823.055 185.136C821.078 185.136 819.294 185.58 817.703 186.466C816.135 187.33 814.896 188.545 813.987 190.114C813.101 191.659 812.658 193.477 812.658 195.568V224H795.987ZM851.428 210.261L851.496 190.386H853.814L868.541 171.636H887.428L865.541 198.5H861.143L851.428 210.261ZM836.393 224V154.182H853.064V224H836.393ZM868.916 224L855.212 202.25L866.189 190.42L888.178 224H868.916ZM915.714 224.989C910.237 224.989 905.51 223.909 901.533 221.75C897.578 219.568 894.533 216.466 892.396 212.443C890.283 208.398 889.226 203.591 889.226 198.023C889.226 192.614 890.294 187.886 892.43 183.841C894.567 179.773 897.578 176.614 901.464 174.364C905.351 172.091 909.93 170.955 915.203 170.955C918.93 170.955 922.339 171.534 925.43 172.693C928.521 173.852 931.192 175.568 933.442 177.841C935.692 180.114 937.442 182.92 938.692 186.261C939.942 189.58 940.567 193.386 940.567 197.682V201.841H895.055V192.159H925.055C925.033 190.386 924.612 188.807 923.794 187.42C922.976 186.034 921.851 184.955 920.419 184.182C919.01 183.386 917.385 182.989 915.544 182.989C913.68 182.989 912.01 183.409 910.533 184.25C909.055 185.068 907.885 186.193 907.021 187.625C906.158 189.034 905.703 190.636 905.658 192.432V202.284C905.658 204.42 906.078 206.295 906.919 207.909C907.76 209.5 908.953 210.739 910.499 211.625C912.044 212.511 913.885 212.955 916.021 212.955C917.499 212.955 918.839 212.75 920.044 212.341C921.249 211.932 922.283 211.33 923.146 210.534C924.01 209.739 924.658 208.761 925.089 207.602L940.396 208.045C939.76 211.477 938.362 214.466 936.203 217.011C934.067 219.534 931.26 221.5 927.783 222.909C924.305 224.295 920.283 224.989 915.714 224.989ZM978.638 171.636V183.909H945.604V171.636H978.638ZM952.524 159.091H969.195V207.534C969.195 208.557 969.354 209.386 969.672 210.023C970.013 210.636 970.501 211.08 971.138 211.352C971.774 211.602 972.536 211.727 973.422 211.727C974.058 211.727 974.729 211.67 975.433 211.557C976.161 211.42 976.706 211.307 977.07 211.216L979.592 223.25C978.797 223.477 977.672 223.761 976.217 224.102C974.786 224.443 973.07 224.659 971.07 224.75C967.161 224.932 963.808 224.477 961.013 223.386C958.24 222.273 956.115 220.545 954.638 218.205C953.183 215.864 952.479 212.92 952.524 209.375V159.091Z" fill="white"/>
<defs>
<clipPath id="clip0_3_35">
<rect width="314" height="242" fill="white" transform="translate(70 68)"/>
</clipPath>
</defs>
</svg>
